<?xml version="1.0" encoding="UTF-8" standalone="no"?>
<!-- Created with Inkscape (http://www.inkscape.org/) -->

<svg
   width="1024"
   height="512"
   viewBox="0 0 270.93332 135.46666"
   version="1.1"
   id="svg1"
   xml:space="preserve"
   inkscape:version="1.3.2 (1:1.3.2+202311252150+091e20ef0f)"
   sodipodi:docname="silk_banner.svg"
   inkscape:export-filename="silk_banner.png"
   inkscape:export-xdpi="96"
   inkscape:export-ydpi="96"
   xmlns:inkscape="http://www.inkscape.org/namespaces/inkscape"
   xmlns:sodipodi="http://sodipodi.sourceforge.net/DTD/sodipodi-0.dtd"
   xmlns="http://www.w3.org/2000/svg"
   xmlns:svg="http://www.w3.org/2000/svg"><sodipodi:namedview
     id="namedview1"
     pagecolor="#505050"
     bordercolor="#eeeeee"
     borderopacity="1"
     inkscape:showpageshadow="0"
     inkscape:pageopacity="0"
     inkscape:pagecheckerboard="0"
     inkscape:deskcolor="#505050"
     inkscape:document-units="px"
     inkscape:zoom="0.76855158"
     inkscape:cx="263.48264"
     inkscape:cy="190.61831"
     inkscape:window-width="1916"
     inkscape:window-height="1041"
     inkscape:window-x="0"
     inkscape:window-y="18"
     inkscape:window-maximized="1"
     inkscape:current-layer="layer1" /><defs
     id="defs1"><rect
       x="0"
       y="0"
       width="255.99998"
       height="80"
       id="rect4" /><rect
       x="0"
       y="0"
       width="256"
       height="160"
       id="rect2" /><rect
       x="256"
       y="0"
       width="317.29468"
       height="158.9902"
       id="rect1" /></defs><g
     inkscape:label="Layer 1"
     inkscape:groupmode="layer"
     id="layer1"><rect
       style="fill:#756ab6;fill-opacity:1;stroke:#756ab6;stroke-width:7.26656;stroke-linecap:round;stroke-linejoin:miter;stroke-miterlimit:4;stroke-dasharray:none;stroke-opacity:1"
       id="rect3"
       width="263.66675"
       height="128.2001"
       x="3.6333399"
       y="3.6333399"
       ry="0" /><g
       inkscape:label="Layer 1"
       id="layer1-6"
       transform="matrix(2.0000035,0,0,2.0000071,39.687385,23.803823)"><path
         id="path24"
         style="fill:#ffffff;stroke:#ffffff;stroke-width:2.11667;stroke-linecap:round;stroke-linejoin:round;stroke-opacity:0"
         d="m 26.404858,7.4719506 a 8.4666662,16.933332 45 0 0 -9.637259,0.065773 c 0.83011,1.2517618 1.663375,2.5012504 2.488426,3.7563904 1.331083,2.017464 2.654698,4.039846 3.974538,6.064671 0.745794,0.48473 1.489925,0.972134 2.236659,1.455418 A 8.4666662,16.933332 45 0 0 26.404858,7.4719506 Z M 15.980877,7.9042277 a 8.4666662,16.933332 45 0 0 -3.705964,2.3035293 c 2.742554,1.767244 5.463431,3.568031 8.193534,5.354319 0.328101,0.215046 0.658167,0.42712 0.986601,0.641655 -0.968658,-1.480949 -1.940674,-2.959705 -2.915222,-4.436779 -0.848392,-1.290651 -1.70519,-2.575689 -2.558949,-3.8627243 z m 9.057722,11.6550413 c -0.217151,-0.140531 -0.433338,-0.282514 -0.650425,-0.423142 0.157942,0.243176 0.316886,0.485705 0.474664,0.728988 a 8.4666662,16.933332 45 0 0 0.175764,-0.305843 z M 22.611197,17.980343 C 21.740115,17.413978 20.867525,16.85003 19.998533,16.280467 17.1841,14.438998 14.379801,12.580955 11.551041,10.76135 a 8.4666662,16.933332 45 0 0 -2.2732006,1.916564 c 0.3856467,1.685896 0.7841396,3.368889 1.1828236,5.051759 2.083923,1.204275 4.2026,2.347211 6.322283,3.486719 1.688197,0.90723 3.388977,1.79065 5.098897,2.655782 a 8.4666662,16.933332 45 0 0 2.47454,-3.211201 C 23.77665,19.766138 23.193319,18.87363 22.611197,17.980343 Z m -1.326429,6.550295 c -1.645417,-0.834561 -3.282783,-1.685105 -4.908155,-2.558583 -1.891361,-1.016825 -3.781759,-2.035992 -5.648104,-3.098291 0.568814,2.382654 1.148249,4.762746 1.742263,7.139333 0.02167,0.08794 0.04336,0.175884 0.06504,0.263825 1.789676,0.481131 3.581555,0.954246 5.37551,1.419607 a 8.4666662,16.933332 45 0 0 2.506698,-2.264065 8.4666662,16.933332 45 0 0 0.866743,-0.90183 z M 8.553238,13.356476 A 8.4666662,16.933332 45 0 0 8.444346,13.45879 8.4666662,16.933332 45 0 0 6.6472729,15.428336 c 0.313042,0.193442 0.4517657,0.282942 1.0359294,0.64056 C 8.266331,16.42588 8.8513077,16.77996 9.4386194,17.13004 9.1422864,15.87242 8.8422617,14.615781 8.553238,13.356476 Z m 1.1572441,4.931905 C 9.6130224,18.231651 9.5143544,18.176965 9.4170584,18.119931 8.6824327,17.689267 7.9566823,17.243304 7.2304606,16.798617 6.5914529,16.407338 6.4224032,16.298429 6.0962362,16.096304 a 8.4666662,16.933332 45 0 0 -4.1941451,7.145907 c 0.3019177,0.09496 0.6020813,0.195388 0.9047491,0.287942 0.8593293,0.262776 1.7243086,0.507788 2.5863553,0.761509 2.0602241,0.595661 4.1261789,1.170398 6.1958475,1.731301 -0.642624,-2.574179 -1.26554,-5.153316 -1.8785609,-7.734582 z m 7.3567519,10.074652 c -1.434191,-0.37327 -2.865665,-0.756855 -4.297194,-1.140072 0.280096,1.13412 0.561063,2.268012 0.841899,3.401944 a 8.4666662,16.933332 45 0 0 3.455295,-2.261872 z M 11.823269,26.971926 C 9.5942414,26.370585 7.3686406,25.756627 5.1505639,25.115291 4.2823349,24.859668 3.4114455,24.612641 2.5459393,24.347935 2.2389826,24.254055 1.9345859,24.152321 1.628401,24.055974 A 8.4666662,16.933332 45 0 0 2.4575106,31.419302 8.4666662,16.933332 45 0 0 12.824485,31.018449 C 12.490384,29.66972 12.156203,28.320946 11.823269,26.971926 Z" /><path
         style="fill:#000000;fill-opacity:0;stroke:#ffffff;stroke-width:2.11667;stroke-linecap:round;stroke-linejoin:round;stroke-opacity:1"
         d="M 27.992358,5.8844507 31.220833,2.6458333"
         id="path40"
         sodipodi:nodetypes="cc" /></g><text
       xml:space="preserve"
       transform="matrix(1.0583353,0,0,1.0583371,42.349871,42.313662)"
       id="text1"
       style="font-size:32px;line-height:1;font-family:'Noto Color Emoji';-inkscape-font-specification:'Noto Color Emoji';text-align:center;letter-spacing:2px;white-space:pre;shape-inside:url(#rect2);display:inline;fill:#ffffff;fill-opacity:1;stroke:#ffffff;stroke-width:1;stroke-linecap:round;stroke-linejoin:round;stroke-dasharray:none;stroke-opacity:1"><tspan
         x="85"
         y="28"
         id="tspan5"><tspan
           style="font-family:'Font Awesome 6 Brands';-inkscape-font-specification:'Font Awesome 6 Brands'"
           id="tspan2">Silk</tspan></tspan></text><text
       xml:space="preserve"
       transform="matrix(1.0583353,0,0,1.0583371,0.00665273,105.82862)"
       id="text4"
       style="font-style:normal;font-variant:normal;font-weight:normal;font-stretch:normal;font-size:6px;line-height:1;font-family:'Font Awesome 6 Brands';-inkscape-font-specification:'Font Awesome 6 Brands';text-align:center;letter-spacing:2px;white-space:pre;shape-inside:url(#rect4);display:inline;fill:#ffffff;fill-opacity:1;stroke:#ffffff;stroke-width:0.5;stroke-linecap:round;stroke-linejoin:round;stroke-dasharray:none;stroke-opacity:0.988539"><tspan
         x="31.125"
         y="5.25"
         id="tspan6">Single-header 2d graphics library</tspan></text></g></svg>
